<?xml version="1.0" standalone="no"?>
<!DOCTYPE svg PUBLIC "-//W3C//DTD SVG 20010904//EN"
 "http://www.w3.org/TR/2001/REC-SVG-20010904/DTD/svg10.dtd">
<svg version="1.0" xmlns="http://www.w3.org/2000/svg"
 width="200.000000pt" height="200.000000pt" viewBox="0 0 200.000000 200.000000"
 preserveAspectRatio="xMidYMid meet">

<g transform="translate(0.000000,200.000000) scale(0.100000,-0.100000)"
fill="#000000" stroke="none">
<path d="M704 1391 c-12 -5 -31 -22 -44 -38 -45 -57 -1 -153 70 -153 l30 0 2
-317 3 -318 38 -3 37 -3 0 385 0 386 -27 30 c-30 32 -75 45 -109 31z m22 -83
c-1 -31 -5 -43 -16 -43 -19 0 -25 37 -10 64 17 33 26 25 26 -21z m50 0 c-1
-31 -5 -43 -16 -43 -19 0 -24 24 -11 58 15 40 27 33 27 -15z"/>
<path d="M920 1293 c0 -4 39 -47 87 -95 l88 -88 -100 -100 -100 -100 54 0 54
0 101 100 101 99 -95 96 c-93 94 -95 95 -142 95 -27 0 -48 -3 -48 -7z"/>
<path d="M993 850 c-42 -17 -38 -98 5 -101 27 -2 46 2 56 12 16 15 -1 21 -22
8 -17 -11 -24 -10 -38 2 -16 13 -13 14 26 19 50 6 60 20 31 49 -23 23 -26 24
-58 11z m47 -25 c11 -13 7 -15 -25 -15 -32 0 -36 2 -25 15 7 8 18 15 25 15 7
0 18 -7 25 -15z"/>
<path d="M1103 853 c-7 -2 -13 -15 -13 -27 0 -15 9 -25 32 -34 26 -9 30 -14
20 -24 -10 -10 -17 -10 -32 0 -27 16 -35 15 -20 -3 15 -19 66 -20 73 -2 7 20
-4 34 -37 47 -23 8 -27 13 -17 23 9 9 16 9 31 -1 22 -13 27 -3 8 16 -13 13
-24 14 -45 5z"/>
<path d="M1208 852 c-29 -6 -21 -40 13 -58 23 -12 28 -19 20 -27 -9 -9 -17 -8
-32 2 -18 10 -20 10 -17 -1 7 -19 64 -23 71 -4 7 18 -17 46 -39 46 -8 0 -14 7
-14 15 0 18 21 20 38 3 9 -9 12 -8 12 4 0 17 -24 26 -52 20z"/>
<path d="M900 800 c0 -27 4 -50 10 -50 5 0 7 13 4 29 -5 21 0 34 17 50 l23 21
-27 0 c-26 0 -27 -2 -27 -50z"/>
<path d="M1165 646 c0 -35 3 -68 8 -72 4 -4 7 5 7 19 0 34 10 34 40 2 13 -14
28 -25 34 -25 5 0 -5 15 -23 34 l-33 34 32 36 c40 45 28 47 -17 4 l-33 -32 0
32 c0 18 -3 32 -8 32 -4 0 -7 -29 -7 -64z"/>
<path d="M906 664 c-19 -19 -21 -54 -3 -78 17 -23 63 -24 85 -2 19 19 1 22
-27 4 -15 -9 -23 -9 -35 1 -27 22 -18 31 29 31 32 0 45 4 45 14 0 22 -29 46
-55 46 -13 0 -31 -7 -39 -16z m72 -21 c2 -9 -8 -13 -32 -13 -34 0 -44 8 -29
24 11 11 56 2 61 -11z"/>
<path d="M1030 661 c-14 -27 -13 -66 4 -80 7 -6 32 -10 55 -9 l41 1 0 52 0 52
-45 1 c-35 2 -46 -2 -55 -17z m80 -35 c0 -32 -26 -53 -48 -39 -24 14 -27 54
-7 70 24 17 55 -1 55 -31z"/>
</g>
</svg>
