<?xml version="1.0" encoding="UTF-8" standalone="no"?><!DOCTYPE svg PUBLIC "-//W3C//DTD SVG 1.1//EN" "http://www.w3.org/Graphics/SVG/1.1/DTD/svg11.dtd"><svg width="100%" height="100%" viewBox="0 0 6000 6000" version="1.1" xmlns="http://www.w3.org/2000/svg" xmlns:xlink="http://www.w3.org/1999/xlink" xml:space="preserve" xmlns:serif="http://www.serif.com/" style="fill-rule:evenodd;clip-rule:evenodd;stroke-linejoin:round;stroke-miterlimit:2;"><g id="Layer-1" serif:id="Layer 1"><rect x="1869.53" y="1100.57" width="456.317" height="4403.13"/><path d="M3311.86,3394.64l1189.66,-1189.67l-1104.42,-1104.41l-650.633,-0l1104.4,1104.41l-1188.45,1188.45l649.439,1.216Z" style="fill-rule:nonzero;"/><path d="M2325.85,1100.57c-0,333.734 -270.545,604.278 -604.278,604.278c-333.733,0 -604.272,-270.544 -604.272,-604.278c-0,-333.733 270.539,-604.278 604.272,-604.278c333.733,0 604.278,270.545 604.278,604.278" style="fill:#e85d04;fill-rule:nonzero;"/><path d="M1958.76,1115.47l-0,224.083l-186.139,-0l-0,-223.178c-0,-85.533 17.239,-155.105 51.722,-208.728c34.472,-53.605 85.006,-85.838 151.589,-96.683l-0,92.167c-60.85,18.605 -91.267,89.383 -91.267,212.339l74.095,-0Zm-305.406,-0l0,224.083l-186.139,-0l0,-223.178c0,-85.533 17.239,-155.105 51.717,-208.728c34.478,-53.605 85.005,-85.838 151.589,-96.683l-0,92.167c-60.85,18.605 -91.261,89.383 -91.261,212.339l74.094,-0Z" style="fill:#fff;fill-rule:nonzero;"/><path d="M2768.27,4396.83l-105.85,0l0,-637.383l105.85,-0l0,103.522c36.056,-70.956 104.673,-115.15 205.862,-115.15l-0,109.333l-27.912,0c-101.188,0 -177.95,45.356 -177.95,193.073l0,346.605Z" style="fill-rule:nonzero;"/><path d="M3166.03,4031.61l402.427,-0c1.161,-124.45 -91.877,-193.073 -201.211,-193.073c-103.516,0 -189.583,68.623 -201.216,193.073m205.861,375.683c-181.434,0 -315.195,-127.944 -315.195,-330.322c0,-201.217 129.1,-327.989 315.195,-327.989c184.933,-0 305.9,130.267 305.9,304.728c-0,23.261 -1.161,41.866 -3.484,63.972l-509.439,-0c8.134,129.105 98.862,200.05 207.023,200.05c95.377,-0 155.861,-48.85 179.127,-117.472l113.978,-0c-32.572,116.311 -134.922,207.033 -293.105,207.033" style="fill-rule:nonzero;"/><path d="M4042.97,4407.3c-148.878,0 -253.55,-81.417 -260.534,-197.728l109.334,0c5.822,61.645 60.483,108.167 150.039,108.167c83.744,-0 130.272,-41.872 130.272,-94.211c-0,-141.9 -376.85,-59.322 -376.85,-296.595c-0,-97.7 91.889,-177.95 233.783,-177.95c140.745,0 233.784,75.6 240.767,200.056l-105.845,-0c-4.65,-63.972 -53.5,-110.5 -138.405,-110.5c-77.928,-0 -124.456,37.222 -124.456,88.394c0,151.212 369.873,68.628 374.517,296.595c0,104.678 -91.878,183.772 -232.622,183.772" style="fill-rule:nonzero;"/><path d="M4650.08,4407.3c-148.878,0 -253.55,-81.417 -260.534,-197.728l109.334,0c5.822,61.645 60.483,108.167 150.039,108.167c83.744,-0 130.272,-41.872 130.272,-94.211c-0,-141.9 -376.85,-59.322 -376.85,-296.595c-0,-97.7 91.889,-177.95 233.783,-177.95c140.745,0 233.784,75.6 240.767,200.056l-105.845,-0c-4.65,-63.972 -53.5,-110.5 -138.411,-110.5c-77.922,-0 -124.45,37.222 -124.45,88.394c0,151.212 369.873,68.628 374.517,296.595c0,104.678 -91.878,183.772 -232.622,183.772" style="fill-rule:nonzero;"/><path d="M2739.15,5089.49l427.972,-0c1.239,-132.35 -97.711,-205.339 -213.983,-205.339c-110.083,-0 -201.617,72.989 -213.989,205.339m218.928,399.528c-192.95,-0 -335.2,-136.062 -335.2,-351.295c0,-213.989 137.294,-348.811 335.2,-348.811c196.678,0 325.317,138.533 325.317,324.072c-0,24.739 -1.234,44.534 -3.706,68.039l-541.772,0c8.65,137.295 105.139,212.75 220.161,212.75c101.433,0 165.756,-51.95 190.494,-124.933l121.217,-0c-34.639,123.7 -143.483,220.178 -311.711,220.178" style="fill-rule:nonzero;"/><path d="M3733.62,4886.62c-123.689,-0 -228.828,90.3 -228.828,249.861c-0,159.561 105.139,253.567 228.828,253.567c123.689,-0 230.077,-92.767 230.077,-252.334c0,-157.089 -106.388,-251.094 -230.077,-251.094m-22.267,-97.711c126.172,-0 212.761,64.322 252.344,134.822l0,-123.689l113.789,-0l0,677.833l-113.789,0l0,-126.172c-40.833,72.983 -128.644,137.306 -253.583,137.306c-180.583,-0 -320.361,-142.25 -320.361,-352.528c-0,-211.517 139.778,-347.572 321.6,-347.572" style="fill-rule:nonzero;"/><path d="M4380.51,5084.53l0,393.345l-112.566,-0l-0,-862.139l112.566,-0l0,399.528l356.239,-399.528l142.25,-0l-390.878,431.683l394.584,430.456l-147.195,-0l-355,-393.345Z" style="fill:#e85d04;fill-rule:nonzero;"/></g></svg>