<svg width="20" height="16" viewBox="0 0 20 16" fill="none" xmlns="http://www.w3.org/2000/svg">
<path d="M0 1C0 0.447715 0.447715 0 1 0H19C19.5523 0 20 0.447715 20 1C20 1.55228 19.5523 2 19 2H1C0.447715 2 0 1.55228 0 1Z" fill="#E85D04"/>
<path d="M0 8C0 7.44772 0.447715 7 1 7H16C16.5523 7 17 7.44772 17 8C17 8.55228 16.5523 9 16 9H1C0.447715 9 0 8.55228 0 8Z" fill="#E85D04"/>
<path d="M0 15C0 14.4477 0.447715 14 1 14H13C13.5523 14 14 14.4477 14 15C14 15.5523 13.5523 16 13 16H1C0.447716 16 0 15.5523 0 15Z" fill="#E85D04"/>
</svg>
